<mxfile host="app.diagrams.net" agent="Mozilla/5.0 (X11; Linux x86_64) AppleWebKit/537.36 (KHTML, like Gecko) Chrome/129.0.0.0 Safari/537.36" version="24.8.2">
  <diagram name="Page-1" id="c37626ed-c26b-45fb-9056-f9ebc6bb27b6">
    <mxGraphModel dx="-85" dy="1323" grid="1" gridSize="10" guides="1" tooltips="1" connect="1" arrows="1" fold="1" page="1" pageScale="1" pageWidth="1100" pageHeight="850" background="none" math="0" shadow="0">
      <root>
        <mxCell id="0" />
        <mxCell id="1" parent="0" />
        <mxCell id="ggEI7upBX0PHbN0MwtED-1" value="T" style="whiteSpace=wrap;html=1;aspect=fixed;movable=0;resizable=0;rotatable=0;deletable=0;editable=0;locked=1;connectable=0;" vertex="1" parent="1">
          <mxGeometry x="1110.2" y="-20" width="1120" height="1120" as="geometry" />
        </mxCell>
        <mxCell id="ggEI7upBX0PHbN0MwtED-13" style="edgeStyle=orthogonalEdgeStyle;rounded=0;orthogonalLoop=1;jettySize=auto;html=1;" edge="1" parent="1" source="ggEI7upBX0PHbN0MwtED-3" target="ggEI7upBX0PHbN0MwtED-11">
          <mxGeometry relative="1" as="geometry" />
        </mxCell>
        <mxCell id="ggEI7upBX0PHbN0MwtED-41" style="edgeStyle=orthogonalEdgeStyle;rounded=0;orthogonalLoop=1;jettySize=auto;html=1;" edge="1" parent="1" source="ggEI7upBX0PHbN0MwtED-3" target="ggEI7upBX0PHbN0MwtED-37">
          <mxGeometry relative="1" as="geometry">
            <Array as="points">
              <mxPoint x="1430" y="861" />
            </Array>
          </mxGeometry>
        </mxCell>
        <mxCell id="ggEI7upBX0PHbN0MwtED-42" style="edgeStyle=orthogonalEdgeStyle;rounded=0;orthogonalLoop=1;jettySize=auto;html=1;" edge="1" parent="1" source="ggEI7upBX0PHbN0MwtED-3" target="ggEI7upBX0PHbN0MwtED-33">
          <mxGeometry relative="1" as="geometry">
            <Array as="points">
              <mxPoint x="1340" y="623" />
              <mxPoint x="1340" y="913" />
            </Array>
          </mxGeometry>
        </mxCell>
        <mxCell id="ggEI7upBX0PHbN0MwtED-3" value="" style="image;points=[];aspect=fixed;html=1;align=center;shadow=0;dashed=0;image=img/lib/allied_telesis/switch/Switch_24_port_L3.svg;" vertex="1" parent="1">
          <mxGeometry x="1388.5" y="600" width="67" height="45.93" as="geometry" />
        </mxCell>
        <mxCell id="ggEI7upBX0PHbN0MwtED-5" value="" style="image;points=[];aspect=fixed;html=1;align=center;shadow=0;dashed=0;image=img/lib/allied_telesis/switch/Switch_24_port_L3.svg;" vertex="1" parent="1">
          <mxGeometry x="1880" y="190" width="74.4" height="51" as="geometry" />
        </mxCell>
        <mxCell id="ggEI7upBX0PHbN0MwtED-8" value="SW-DATA-100GBE" style="text;strokeColor=none;align=center;fillColor=none;html=1;verticalAlign=middle;whiteSpace=wrap;rounded=0;" vertex="1" parent="1">
          <mxGeometry x="1367" y="560" width="110" height="30" as="geometry" />
        </mxCell>
        <mxCell id="ggEI7upBX0PHbN0MwtED-22" style="edgeStyle=orthogonalEdgeStyle;rounded=0;orthogonalLoop=1;jettySize=auto;html=1;" edge="1" parent="1" source="ggEI7upBX0PHbN0MwtED-11" target="ggEI7upBX0PHbN0MwtED-18">
          <mxGeometry relative="1" as="geometry" />
        </mxCell>
        <mxCell id="ggEI7upBX0PHbN0MwtED-39" style="edgeStyle=orthogonalEdgeStyle;rounded=0;orthogonalLoop=1;jettySize=auto;html=1;" edge="1" parent="1" source="ggEI7upBX0PHbN0MwtED-11" target="ggEI7upBX0PHbN0MwtED-37">
          <mxGeometry relative="1" as="geometry">
            <Array as="points">
              <mxPoint x="1710" y="851" />
            </Array>
          </mxGeometry>
        </mxCell>
        <mxCell id="ggEI7upBX0PHbN0MwtED-11" value="" style="image;points=[];aspect=fixed;html=1;align=center;shadow=0;dashed=0;image=img/lib/allied_telesis/switch/Switch_24_port_L3.svg;" vertex="1" parent="1">
          <mxGeometry x="1701.5" y="600" width="67" height="45.93" as="geometry" />
        </mxCell>
        <mxCell id="ggEI7upBX0PHbN0MwtED-12" value="SW-CORE-10GBE-RIACHAO-DATA" style="text;strokeColor=none;align=center;fillColor=none;html=1;verticalAlign=middle;whiteSpace=wrap;rounded=0;" vertex="1" parent="1">
          <mxGeometry x="1680" y="570" width="110" height="30" as="geometry" />
        </mxCell>
        <mxCell id="ggEI7upBX0PHbN0MwtED-23" value="" style="group" vertex="1" connectable="0" parent="1">
          <mxGeometry x="1862.2" y="569.9999999999999" width="110" height="73.92999999999995" as="geometry" />
        </mxCell>
        <mxCell id="ggEI7upBX0PHbN0MwtED-18" value="" style="image;points=[];aspect=fixed;html=1;align=center;shadow=0;dashed=0;image=img/lib/allied_telesis/switch/Switch_24_port_L3.svg;" vertex="1" parent="ggEI7upBX0PHbN0MwtED-23">
          <mxGeometry x="21.5" y="28" width="67" height="45.93" as="geometry" />
        </mxCell>
        <mxCell id="ggEI7upBX0PHbN0MwtED-19" value="SW-DATA-ENTROCAMENTO" style="text;strokeColor=none;align=center;fillColor=none;html=1;verticalAlign=middle;whiteSpace=wrap;rounded=0;" vertex="1" parent="ggEI7upBX0PHbN0MwtED-23">
          <mxGeometry width="110" height="30" as="geometry" />
        </mxCell>
        <mxCell id="ggEI7upBX0PHbN0MwtED-24" value="" style="group" vertex="1" connectable="0" parent="1">
          <mxGeometry x="1870" y="699.9999999999999" width="110" height="73.92999999999995" as="geometry" />
        </mxCell>
        <mxCell id="ggEI7upBX0PHbN0MwtED-25" value="" style="image;points=[];aspect=fixed;html=1;align=center;shadow=0;dashed=0;image=img/lib/allied_telesis/switch/Switch_24_port_L3.svg;" vertex="1" parent="ggEI7upBX0PHbN0MwtED-24">
          <mxGeometry x="21.5" y="28" width="67" height="45.93" as="geometry" />
        </mxCell>
        <mxCell id="ggEI7upBX0PHbN0MwtED-26" value="SW-DATA-SANTA-RITA" style="text;strokeColor=none;align=center;fillColor=none;html=1;verticalAlign=middle;whiteSpace=wrap;rounded=0;" vertex="1" parent="ggEI7upBX0PHbN0MwtED-24">
          <mxGeometry width="110" height="30" as="geometry" />
        </mxCell>
        <mxCell id="ggEI7upBX0PHbN0MwtED-27" style="edgeStyle=orthogonalEdgeStyle;rounded=0;orthogonalLoop=1;jettySize=auto;html=1;entryX=0.432;entryY=0.028;entryDx=0;entryDy=0;entryPerimeter=0;" edge="1" parent="1" source="ggEI7upBX0PHbN0MwtED-18" target="ggEI7upBX0PHbN0MwtED-26">
          <mxGeometry relative="1" as="geometry" />
        </mxCell>
        <mxCell id="ggEI7upBX0PHbN0MwtED-28" value="" style="group" vertex="1" connectable="0" parent="1">
          <mxGeometry x="2050" y="569.9999999999999" width="110" height="73.92999999999995" as="geometry" />
        </mxCell>
        <mxCell id="ggEI7upBX0PHbN0MwtED-29" value="" style="image;points=[];aspect=fixed;html=1;align=center;shadow=0;dashed=0;image=img/lib/allied_telesis/switch/Switch_24_port_L3.svg;" vertex="1" parent="ggEI7upBX0PHbN0MwtED-28">
          <mxGeometry x="21.5" y="28" width="67" height="45.93" as="geometry" />
        </mxCell>
        <mxCell id="ggEI7upBX0PHbN0MwtED-30" value="SW-DATA-FORMSA" style="text;strokeColor=none;align=center;fillColor=none;html=1;verticalAlign=middle;whiteSpace=wrap;rounded=0;" vertex="1" parent="ggEI7upBX0PHbN0MwtED-28">
          <mxGeometry width="110" height="30" as="geometry" />
        </mxCell>
        <mxCell id="ggEI7upBX0PHbN0MwtED-31" style="edgeStyle=orthogonalEdgeStyle;rounded=0;orthogonalLoop=1;jettySize=auto;html=1;" edge="1" parent="1" source="ggEI7upBX0PHbN0MwtED-18" target="ggEI7upBX0PHbN0MwtED-29">
          <mxGeometry relative="1" as="geometry" />
        </mxCell>
        <mxCell id="ggEI7upBX0PHbN0MwtED-32" value="" style="group" vertex="1" connectable="0" parent="1">
          <mxGeometry x="1930" y="849.9999999999999" width="110" height="73.92999999999995" as="geometry" />
        </mxCell>
        <mxCell id="ggEI7upBX0PHbN0MwtED-33" value="" style="image;points=[];aspect=fixed;html=1;align=center;shadow=0;dashed=0;image=img/lib/allied_telesis/switch/Switch_24_port_L3.svg;" vertex="1" parent="ggEI7upBX0PHbN0MwtED-32">
          <mxGeometry x="21.5" y="40" width="67" height="45.93" as="geometry" />
        </mxCell>
        <mxCell id="ggEI7upBX0PHbN0MwtED-34" value="SW-DATA-AROEIRAS" style="text;strokeColor=none;align=center;fillColor=none;html=1;verticalAlign=middle;whiteSpace=wrap;rounded=0;" vertex="1" parent="ggEI7upBX0PHbN0MwtED-32">
          <mxGeometry width="110" height="30" as="geometry" />
        </mxCell>
        <mxCell id="ggEI7upBX0PHbN0MwtED-35" style="edgeStyle=orthogonalEdgeStyle;rounded=0;orthogonalLoop=1;jettySize=auto;html=1;" edge="1" parent="1" source="ggEI7upBX0PHbN0MwtED-25" target="ggEI7upBX0PHbN0MwtED-33">
          <mxGeometry relative="1" as="geometry">
            <Array as="points">
              <mxPoint x="1925" y="826" />
              <mxPoint x="2050" y="826" />
              <mxPoint x="2050" y="901" />
            </Array>
          </mxGeometry>
        </mxCell>
        <mxCell id="ggEI7upBX0PHbN0MwtED-36" value="" style="group" vertex="1" connectable="0" parent="1">
          <mxGeometry x="1595" y="809.9999999999999" width="110" height="73.92999999999995" as="geometry" />
        </mxCell>
        <mxCell id="ggEI7upBX0PHbN0MwtED-37" value="" style="image;points=[];aspect=fixed;html=1;align=center;shadow=0;dashed=0;image=img/lib/allied_telesis/switch/Switch_24_port_L3.svg;" vertex="1" parent="ggEI7upBX0PHbN0MwtED-36">
          <mxGeometry x="21.5" y="28" width="67" height="45.93" as="geometry" />
        </mxCell>
        <mxCell id="ggEI7upBX0PHbN0MwtED-38" value="SW-DATA-ANGICAL" style="text;strokeColor=none;align=center;fillColor=none;html=1;verticalAlign=middle;whiteSpace=wrap;rounded=0;" vertex="1" parent="ggEI7upBX0PHbN0MwtED-36">
          <mxGeometry width="110" height="30" as="geometry" />
        </mxCell>
        <mxCell id="ggEI7upBX0PHbN0MwtED-43" value="LINK-PROVIDER" style="text;strokeColor=none;align=center;fillColor=none;html=1;verticalAlign=middle;whiteSpace=wrap;rounded=0;" vertex="1" parent="1">
          <mxGeometry x="1580" y="923.9300000000001" width="100" height="30" as="geometry" />
        </mxCell>
        <mxCell id="ggEI7upBX0PHbN0MwtED-44" value="" style="group" vertex="1" connectable="0" parent="1">
          <mxGeometry x="2100" y="909.9999999999999" width="110" height="73.92999999999995" as="geometry" />
        </mxCell>
        <mxCell id="ggEI7upBX0PHbN0MwtED-45" value="" style="image;points=[];aspect=fixed;html=1;align=center;shadow=0;dashed=0;image=img/lib/allied_telesis/switch/Switch_24_port_L3.svg;" vertex="1" parent="ggEI7upBX0PHbN0MwtED-44">
          <mxGeometry x="21.5" y="28" width="67" height="45.93" as="geometry" />
        </mxCell>
        <mxCell id="ggEI7upBX0PHbN0MwtED-46" value="SW-DATA-JULIO-BORGES" style="text;strokeColor=none;align=center;fillColor=none;html=1;verticalAlign=middle;whiteSpace=wrap;rounded=0;" vertex="1" parent="ggEI7upBX0PHbN0MwtED-44">
          <mxGeometry width="110" height="30" as="geometry" />
        </mxCell>
        <mxCell id="ggEI7upBX0PHbN0MwtED-47" style="edgeStyle=orthogonalEdgeStyle;rounded=0;orthogonalLoop=1;jettySize=auto;html=1;" edge="1" parent="1" source="ggEI7upBX0PHbN0MwtED-33" target="ggEI7upBX0PHbN0MwtED-45">
          <mxGeometry relative="1" as="geometry">
            <Array as="points">
              <mxPoint x="1985" y="970" />
            </Array>
          </mxGeometry>
        </mxCell>
      </root>
    </mxGraphModel>
  </diagram>
</mxfile>
